<svg width="50" height="50" viewBox="0 0 50 50" fill="none" xmlns="http://www.w3.org/2000/svg">
<path d="M19.1964 5.35715C18.8412 5.35715 18.5006 5.49825 18.2494 5.74941C17.9982 6.00058 17.8571 6.34123 17.8571 6.69643C17.8571 7.05163 17.9982 7.39229 18.2494 7.64345C18.5006 7.89462 18.8412 8.03572 19.1964 8.03572H30.8036C31.1588 8.03572 31.4994 7.89462 31.7506 7.64345C32.0018 7.39229 32.1429 7.05163 32.1429 6.69643C32.1429 6.34123 32.0018 6.00058 31.7506 5.74941C31.4994 5.49825 31.1588 5.35715 30.8036 5.35715H19.1964ZM25 16.9643C25.3552 16.9643 25.6958 17.1054 25.947 17.3566C26.1982 17.6077 26.3393 17.9484 26.3393 18.3036V29.0179C26.3393 29.3731 26.1982 29.7137 25.947 29.9649C25.6958 30.216 25.3552 30.3571 25 30.3571C24.6448 30.3571 24.3041 30.216 24.053 29.9649C23.8018 29.7137 23.6607 29.3731 23.6607 29.0179V18.3036C23.6607 17.9484 23.8018 17.6077 24.053 17.3566C24.3041 17.1054 24.6448 16.9643 25 16.9643ZM25 10.7143C15.1375 10.7143 7.14285 18.7089 7.14285 28.5714C7.14285 38.4339 15.1375 46.4286 25 46.4286C34.8625 46.4286 42.8571 38.4339 42.8571 28.5714C42.8571 18.7089 34.8625 10.7143 25 10.7143ZM9.82142 28.5714C9.82142 24.5458 11.4206 20.6851 14.2671 17.8386C17.1137 14.992 20.9744 13.3929 25 13.3929C29.0256 13.3929 32.8863 14.992 35.7329 17.8386C38.5794 20.6851 40.1786 24.5458 40.1786 28.5714C40.1786 32.597 38.5794 36.4578 35.7329 39.3043C32.8863 42.1508 29.0256 43.75 25 43.75C20.9744 43.75 17.1137 42.1508 14.2671 39.3043C11.4206 36.4578 9.82142 32.597 9.82142 28.5714ZM39.7857 11.1071C39.6631 10.9756 39.5152 10.87 39.351 10.7968C39.1867 10.7236 39.0093 10.6843 38.8295 10.6811C38.6497 10.6779 38.4711 10.711 38.3043 10.7784C38.1375 10.8457 37.986 10.946 37.8589 11.0731C37.7317 11.2003 37.6314 11.3518 37.5641 11.5186C37.4967 11.6853 37.4636 11.864 37.4668 12.0438C37.47 12.2236 37.5093 12.401 37.5825 12.5653C37.6557 12.7295 37.7613 12.8774 37.8929 13L40.5714 15.6786C40.694 15.8102 40.8419 15.9157 41.0062 15.9889C41.1705 16.0621 41.3478 16.1015 41.5276 16.1046C41.7075 16.1078 41.8861 16.0747 42.0528 16.0074C42.2196 15.94 42.3711 15.8397 42.4983 15.7126C42.6255 15.5854 42.7257 15.4339 42.7931 15.2671C42.8604 15.1004 42.8935 14.9218 42.8903 14.7419C42.8872 14.5621 42.8478 14.3848 42.7746 14.2205C42.7014 14.0562 42.5959 13.9083 42.4643 13.7857L39.7857 11.1071Z" fill="white"/>
</svg>
